<svg width="1440" height="213" viewBox="0 0 1440 213" fill="none" xmlns="http://www.w3.org/2000/svg">
<path d="M0 52.2892L34.3 62.9892C68.6 73.2892 137 95.2892 206 94.9892C274.3 95.2892 343 73.2892 411 46.9892C480 20.2892 549 -11.7108 617 4.28916C685.7 20.2892 754 84.2892 823 105.589C891.4 127.289 960 105.289 1029 89.5892C1097.1 73.2892 1166 63.2892 1234 62.9892C1302.9 63.2892 1371 73.2892 1406 78.9892L1440 84.2892V212.289H1405.7C1371.4 212.289 1303 212.289 1234 212.289C1165.7 212.289 1097 212.289 1029 212.289C960 212.289 891 212.289 823 212.289C754.3 212.289 686 212.289 617 212.289C548.6 212.289 480 212.289 411 212.289C342.9 212.289 274 212.289 206 212.289C137.1 212.289 69 212.289 34 212.289H0V52.2892Z" fill="#07025F"/>
</svg>
